#!OML:ASF F:\VICON\USERDATA\INSTALL\rory3\rory3.ASF
:FULLY-SPECIFIED
:DEGREES
225
root 1.0217 18.3137 4.03419 -3.22397 -3.15597 -0.506698
lowerback 8.16287 1.6236 0.149555
upperback 1.48851 2.18867 0.533343
thorax -3.04833 1.08798 0.233773
lowerneck -15.3175 -2.72596 -0.878808
upperneck 17.0704 -3.41587 -0.580116
head 7.79964 -1.73979 -0.426674
rclavicle -1.6642e-014 1.08338e-014
rhumerus -30.9632 -20.0395 -77.8207
rradius 26.8084
rwrist 6.20209
rhand -15.4773 18.8129
rfingers 7.12502
rthumb 10.7044 -10.8944
lclavicle -1.6642e-014 1.08338e-014
lhumerus -37.5847 5.55108 80.1405
lradius 25.2368
lwrist -1.38928
lhand -23.1518 29.4457
lfingers 7.12502
lthumb 3.29649 59.3999
rfemur -12.0915 1.70969 22.3812
rtibia 71.6873
rfoot 4.62417 -7.24742
rtoes 7.11769
lfemur -13.7709 -4.76679 -22.6805
ltibia 28.9365
lfoot -9.87787 0.375191
ltoes -1.43149
226
root 1.0321 18.3123 4.18372 -3.26913 -3.10378 -0.388422
lowerback 8.25787 1.53977 -0.0351176
upperback 1.50896 2.06317 0.587381
thorax -3.08797 1.02741 0.404058
lowerneck -15.5346 -2.68178 -0.770197
upperneck 17.2118 -3.35368 -0.709149
head 7.8804 -1.71539 -0.485007
rclavicle -6.6158e-015 7.15625e-015
rhumerus -31.2304 -19.9973 -77.757
rradius 27.152
rwrist 5.91985
rhand -15.4884 19.0029
rfingers 7.12502
rthumb 10.6936 -10.7049
lclavicle -6.6158e-015 7.15625e-015
lhumerus -37.154 5.44342 80.1923
lradius 25.4426
lwrist -1.13615
lhand -21.7364 33.0019
lfingers 7.12502
lthumb 4.66326 62.9306
rfemur -13.2083 1.60457 22.2385
rtibia 72.1491
rfoot 3.67543 -7.35781
rtoes 5.20944
lfemur -13.2736 -4.73493 -22.9301
ltibia 29.1779
lfoot -10.3993 0.487318
ltoes -0.0742878
227
root 1.03226 18.3039 4.33014 -3.39385 -3.20643 -0.532991
lowerback 8.45882 1.51627 -0.142101
upperback 1.60638 2.02909 0.790118
thorax -3.10972 1.01189 0.673087
lowerneck -16.0532 -2.68775 -0.783757
upperneck 17.5529 -3.3439 -0.757583
head 8.08512 -1.7152 -0.50981
rclavicle -4.96962e-017 1.0138e-014
rhumerus -31.0629 -20.095 -77.6302
rradius 27.059
rwrist 5.80316
rhand -15.3959 18.7337
rfingers 7.12502
rthumb 10.7829 -10.9695
lclavicle -4.96962e-017 1.0138e-014
lhumerus -36.6263 5.3999 80.305
lradius 25.7556
lwrist -1.38619
lhand -21.2615 33.1823
lfingers 7.12502
lthumb 5.12185 63.1004
rfemur -14.2976 1.70207 22.4897
rtibia 72.478
rfoot 2.96632 -7.34538
rtoes 5.46433
lfemur -12.7303 -4.5892 -22.8596
ltibia 29.3766
lfoot -10.8746 0.730606
ltoes -0.10134
228
root 1.04068 18.2962 4.4809 -3.51837 -3.13379 -0.553987
lowerback 8.55541 1.45953 -0.113754
upperback 1.63974 1.95689 0.811901
thorax -3.12766 0.975694 0.68566
lowerneck -15.9884 -2.71244 -0.803295
upperneck 17.545 -3.41697 -0.547889
head 8.07527 -1.72991 -0.444343
rclavicle -3.86388e-015 9.93923e-016
rhumerus -31.1433 -20.5052 -77.5079
rradius 26.9559
rwrist 5.60387
rhand -15.2861 18.3448
rfingers 7.12502
rthumb 10.8888 -11.3529
lclavicle -3.86388e-015 9.93923e-016
lhumerus -36.1906 4.95781 80.3458
lradius 26.0029
lwrist -1.61668
lhand -22.7378 30.7965
lfingers 7.12502
lthumb 3.6963 60.7442
rfemur -15.3071 1.61768 22.5248
rtibia 72.6682
rfoot 1.87225 -7.12375
rtoes 6.27751
lfemur -12.2202 -4.5954 -22.9833
ltibia 29.5628
lfoot -10.979 0.987549
ltoes -1.40336
229
root 1.05625 18.284 4.63956 -3.58694 -2.99387 -0.162718
lowerback 8.4577 1.35099 -0.439714
upperback 1.63692 1.78159 0.754638
thorax -3.08183 0.891437 0.831323
lowerneck -15.7869 -2.70594 -0.936534
upperneck 17.4345 -3.41053 -0.384913
head 8.00838 -1.72001 -0.363483
rclavicle -1.36664e-015 -2.18663e-015
rhumerus -31.2775 -20.5247 -77.4017
rradius 26.9129
rwrist 5.35489
rhand -15.0879 17.9661
rfingers 7.12502
rthumb 11.0799 -11.7215
lclavicle -1.36664e-015 -2.18663e-015
lhumerus -35.8505 4.52138 80.5019
lradius 26.203
lwrist -1.23618
lhand -23.4688 29.9251
lfingers 7.12502
lthumb 2.99035 59.8838
rfemur -16.3343 1.36993 21.9909
rtibia 72.7404
rfoot 0.349471 -6.79627
rtoes 5.79148
lfemur -11.8695 -4.42868 -23.6005
ltibia 29.7128
lfoot -11.1449 1.15861
ltoes -3.01543
230
root 1.07052 18.2781 4.7937 -3.5461 -2.97152 0.0369147
lowerback 8.36408 1.27411 -0.556333
upperback 1.57232 1.66873 0.726674
thorax -3.09696 0.836643 0.881613
lowerneck -15.6777 -2.72433 -0.888006
upperneck 17.4372 -3.43774 -0.442173
head 7.98797 -1.73586 -0.391815
rclavicle 7.30534e-015 1.03368e-014
rhumerus -31.587 -20.2492 -77.374
rradius 27.0212
rwrist 4.73235
rhand -14.8893 17.4867
rfingers 7.12502
rthumb 11.2715 -12.1904
lclavicle 7.30534e-015 1.03368e-014
lhumerus -35.7696 4.05053 80.5978
lradius 26.9001
lwrist -1.09714
lhand -22.544 31.1572
lfingers 7.12502
lthumb 3.88341 61.1016
rfemur -17.4712 1.32381 21.7113
rtibia 72.6349
rfoot -1.37889 -6.51021
rtoes 5.01064
lfemur -11.2992 -4.3509 -23.9214
ltibia 29.9486
lfoot -12.443 1.18191
ltoes -0.918199
231
root 1.07614 18.2622 4.9313 -3.4971 -2.72671 0.0149695
lowerback 8.42326 1.1394 -0.566945
upperback 1.61615 1.49004 0.775919
thorax -3.08239 0.747893 0.95744
lowerneck -15.7277 -2.78996 -0.843404
upperneck 17.2328 -3.53398 -0.457574
head 7.92763 -1.78048 -0.41368
rclavicle 4.24902e-015 2.98177e-015
rhumerus -31.6489 -20.1541 -77.3989
rradius 27.1405
rwrist 4.19221
rhand -14.8222 17.5112
rfingers 7.12502
rthumb 11.3363 -12.1624
lclavicle 4.24902e-015 2.98177e-015
lhumerus -35.4625 3.47504 80.7172
lradius 27.6685
lwrist -0.69408
lhand -21.4668 31.7064
lfingers 7.12502
lthumb 4.92358 61.6291
rfemur -18.6125 1.06386 21.7548
rtibia 72.4142
rfoot -2.76317 -6.37188
rtoes 5.91397
lfemur -11.1036 -4.32577 -23.9943
ltibia 30.3144
lfoot -12.2738 1.24633
ltoes -2.85587
232
root 1.07963 18.2386 5.0646 -3.5765 -2.50526 -0.0487538
lowerback 8.67133 0.99468 -0.590471
upperback 1.67305 1.29751 0.859796
thorax -3.1596 0.652641 1.07512
lowerneck -15.7935 -2.76164 -0.761216
upperneck 17.1081 -3.51508 -0.451221
head 7.89622 -1.76562 -0.422502
rclavicle -8.41108e-015 7.95139e-015
rhumerus -31.5269 -20.4136 -77.3273
rradius 27.0612
rwrist 4.12751
rhand -14.3579 18.3462
rfingers 7.12502
rthumb 11.784 -11.3023
lclavicle -8.41108e-015 7.95139e-015
lhumerus -35.1082 2.84303 80.9201
lradius 28.0879
lwrist 0.409032
lhand -22.2355 29.6599
lfingers 7.12502
lthumb 4.18135 59.5986
rfemur -19.6278 0.804063 21.8614
rtibia 72.089
rfoot -3.86172 -6.46519
rtoes 5.74325
lfemur -10.8967 -4.32411 -24.0296
ltibia 30.8931
lfoot -12.6312 1.44355
ltoes -3.8502
233
root 1.0861 18.2036 5.20237 -3.63705 -2.47433 -0.0576931
lowerback 8.80305 0.909234 -0.661221
upperback 1.62716 1.18027 0.941593
thorax -3.28068 0.595999 1.2106
lowerneck -15.741 -2.6919 -0.804489
upperneck 17.2621 -3.43096 -0.350206
head 7.94092 -1.7182 -0.373374
rclavicle -3.10601e-016 -2.38542e-015
rhumerus -31.6218 -20.7012 -77.0983
rradius 26.9957
rwrist 4.21478
rhand -13.7374 19.2286
rfingers 7.12502
rthumb 12.3823 -10.3847
lclavicle -3.10601e-016 -2.38542e-015
lhumerus -34.9513 2.12441 81.1815
lradius 28.4283
lwrist 1.69543
lhand -24.281 25.6864
lfingers 7.12502
lthumb 2.20593 55.6548
rfemur -20.6844 0.753392 21.8954
rtibia 71.6568
rfoot -5.19067 -6.47603
rtoes 3.9905
lfemur -10.6101 -4.27164 -24.1248
ltibia 31.4209
lfoot -13.1875 1.66958
ltoes -3.38917
